<?xml version="1.0" encoding="utf-8"?>
<svg viewBox="-1.146 -2.153 274.839 278.138" xmlns="http://www.w3.org/2000/svg">
  <defs>
    <style>.cls-1{fill:#1d1d1b;}.cls-2{fill:#007179;}</style>
  </defs>
  <g id="Calque_2" data-name="Calque 2">
    <g id="Calque_1-2" data-name="Calque 1">
      <path class="cls-1" d="M402.63,226V192.94h4.89v28.58H423V226Z"/>
      <path class="cls-1" d="M429.73,226V192.94h20.58v4.51H434.62v9.67H448v4.46H434.62v9.94h15.69V226Z"/>
      <path class="cls-1" d="M489.76,222.92a11.32,11.32,0,0,1-8.32,3.11H470.13V192.94h11.31a11.33,11.33,0,0,1,8.32,3.12c3.48,3.58,3.26,8.41,3.26,13.2S493.24,219.34,489.76,222.92Zm-3.35-23.24a6.86,6.86,0,0,0-5.47-2.23H475v24.07h5.93a6.83,6.83,0,0,0,5.47-2.23c1.68-1.9,1.72-5.48,1.72-10S488.09,201.59,486.41,199.68Z"/>
      <path class="cls-1" d="M500.71,202.05v-9.11h5.07v4.89Z"/>
      <path class="cls-1" d="M514.64,226V192.94h4.89V226Z"/>
      <path class="cls-1" d="M548.84,226,534,202.75V226h-4.89V192.94h4.48l14.88,23.24V192.94h4.89V226Z"/>
      <path class="cls-1" d="M582.13,222.54a12.1,12.1,0,0,1-17.32.24c-3.17-3.26-3.12-6.93-3.12-13.29s-.05-10,3.12-13.29a11.36,11.36,0,0,1,8.46-3.53c6.83,0,10.81,4.6,11.71,10.26h-4.93c-.81-3.62-3.16-5.76-6.78-5.76a6.37,6.37,0,0,0-4.75,2.05c-1.58,1.76-1.95,3.62-1.95,10.27s.37,8.55,1.95,10.31a6.33,6.33,0,0,0,4.75,2,6.79,6.79,0,0,0,5.25-2.32,7.66,7.66,0,0,0,1.62-5.21v-1.85h-6.87v-4.28H585v5.07C585,217.48,584.26,220.22,582.13,222.54Z"/>
      <path class="cls-1" d="M593.35,226V192.94h20.59v4.51h-15.7v9.67h13.39v4.46H598.24v9.94h15.7V226Zm11-36.29h-3.49l3.4-7.53h5.11Z"/>
      <path class="cls-1" d="M641.53,226l-14.88-23.28V226h-4.88V192.94h4.47l14.89,23.24V192.94H646V226Z"/>
      <path class="cls-1" d="M655.56,226V192.94h4.88V226Z"/>
      <path class="cls-1" d="M670,226V192.94h20.58v4.51h-15.7v9.67h13.39v4.46H674.87v9.94h15.7V226Z"/>
      <path class="cls-1" d="M709.44,226.31c-6.56,0-11.54-4.6-11.54-11.43V192.94h4.89v21.71c0,4.41,2.62,7.15,6.65,7.15s6.69-2.74,6.69-7.15V192.94H721v21.94C721,221.71,716,226.31,709.44,226.31Z"/>
      <path class="cls-1" d="M747.84,226l-6.78-13.94H735V226h-4.88V192.94h12.48c6.11,0,10,4.05,10,9.67a8.65,8.65,0,0,1-6.43,8.78L753.54,226Zm-5.65-28.58H735v10.36h7.24c3.26,0,5.47-1.9,5.47-5.15S745.45,197.45,742.19,197.45Z"/>
      <path class="cls-1" d="M769.38,226.31c-4.84,0-8.33-1.16-11.4-4.37l3.25-3.3c2.36,2.42,4.93,3.16,8.24,3.16,4.2,0,6.65-1.86,6.65-5.07a4.5,4.5,0,0,0-1.27-3.43c-.81-.79-1.63-1.12-3.53-1.4l-3.8-.55a10.9,10.9,0,0,1-6.11-2.65,8.38,8.38,0,0,1-2.35-6.32c0-5.76,4.07-9.71,10.77-9.71,4.25,0,7.24,1.11,10,3.76l-3.12,3.16a9.34,9.34,0,0,0-7-2.56c-3.8,0-5.88,2.23-5.88,5.16a4,4,0,0,0,1.22,3.07,7.14,7.14,0,0,0,3.62,1.53l3.67.56c3,.46,4.66,1.21,6,2.46A8.77,8.77,0,0,1,781,216.6C781,222.68,776.12,226.31,769.38,226.31Z"/>
      <path class="cls-2" d="M448.31,271.26V238.18h21.14v4.5H453.32v9.67h13.76v4.46H453.32v9.94h16.13v4.51Z"/>
      <path class="cls-2" d="M475.31,271.26V238.18h21.15v4.5H480.33v9.67h13.76v4.46H480.33v9.94h16.13v4.51Z"/>
      <path class="cls-2" d="M520.58,271.26l-7-13.94h-6.27v13.94h-5V238.18h12.83c6.27,0,10.27,4,10.27,9.66a8.69,8.69,0,0,1-6.6,8.78l7.62,14.64Zm-5.8-28.58h-7.44v10.37h7.44c3.34,0,5.62-1.91,5.62-5.16S518.12,242.68,514.78,242.68Z"/>
      <path class="cls-2" d="M531.75,271.26V238.18h5v33.08Z"/>
      <path class="cls-2" d="M564.7,271.26,549.41,248v23.28h-5V238.18H549l15.29,23.23V238.18h5v33.08Z"/>
      <path class="cls-2" d="M596.73,267.78a12.69,12.69,0,0,1-17.8.23c-3.25-3.26-3.21-6.93-3.21-13.29s0-10,3.21-13.29a11.83,11.83,0,0,1,8.69-3.53c7,0,11.11,4.6,12,10.27h-5.07c-.84-3.63-3.25-5.76-7-5.76a6.62,6.62,0,0,0-4.88,2c-1.63,1.76-2,3.62-2,10.27s.37,8.55,2,10.31a6.59,6.59,0,0,0,4.88,2,7,7,0,0,0,5.39-2.32,7.47,7.47,0,0,0,1.67-5.2v-1.86h-7.06v-4.28H599.7v5.07C599.7,262.71,598.91,265.45,596.73,267.78Z"/>
      <path class="cls-2" d="M625,271.54c-5,0-8.55-1.16-11.71-4.37l3.35-3.3c2.42,2.42,5.06,3.16,8.46,3.16,4.32,0,6.83-1.86,6.83-5.06a4.46,4.46,0,0,0-1.3-3.44c-.84-.79-1.68-1.12-3.63-1.4l-3.9-.55a11.33,11.33,0,0,1-6.28-2.65,8.27,8.27,0,0,1-2.41-6.32c0-5.76,4.18-9.71,11.06-9.71,4.37,0,7.43,1.11,10.27,3.76l-3.21,3.16a9.7,9.7,0,0,0-7.2-2.55c-3.9,0-6,2.23-6,5.15a3.94,3.94,0,0,0,1.25,3.07,7.44,7.44,0,0,0,3.72,1.53l3.76.56c3.07.47,4.79,1.21,6.18,2.46a8.64,8.64,0,0,1,2.7,6.79C636.89,267.92,631.92,271.54,625,271.54Z"/>
      <path class="cls-2" d="M653.3,271.54a12,12,0,0,1-8.69-3.53c-3.25-3.26-3.2-6.93-3.2-13.29s0-10,3.2-13.29a12,12,0,0,1,8.69-3.53c6.09,0,10.64,3.57,11.81,10.17H660c-.8-3.34-3-5.66-6.7-5.66a6.64,6.64,0,0,0-4.88,2c-1.62,1.77-2,3.67-2,10.32s.37,8.55,2,10.31a6.61,6.61,0,0,0,4.88,2c3.67,0,6-2.32,6.74-5.67h5.07C664,268,659.3,271.54,653.3,271.54Z"/>
      <path class="cls-2" d="M689.23,271.26V256.81H675.81v14.45h-5V238.18h5V252.3h13.42V238.18h5v33.08Z"/>
      <path class="cls-2" d="M721.31,268a12.52,12.52,0,0,1-17.43,0c-3.25-3.26-3.2-6.93-3.2-13.29s0-10,3.2-13.29a12.52,12.52,0,0,1,17.43,0c3.25,3.25,3.16,6.92,3.16,13.29S724.56,264.75,721.31,268Zm-3.81-23.56a7,7,0,0,0-9.85,0c-1.63,1.76-1.95,3.62-1.95,10.27s.32,8.5,1.95,10.27a7,7,0,0,0,9.85,0c1.63-1.77,2-3.63,2-10.27S719.13,246.21,717.5,244.45Z"/>
      <path class="cls-2" d="M750.32,268a12.52,12.52,0,0,1-17.43,0c-3.25-3.26-3.2-6.93-3.2-13.29s-.05-10,3.2-13.29a12.52,12.52,0,0,1,17.43,0c3.25,3.25,3.16,6.92,3.16,13.29S753.57,264.75,750.32,268Zm-3.81-23.56a7,7,0,0,0-9.85,0c-1.63,1.76-2,3.62-2,10.27s.33,8.5,2,10.27a7,7,0,0,0,9.85,0c1.62-1.77,2-3.63,2-10.27S748.13,246.21,746.51,244.45Z"/>
      <path class="cls-2" d="M759.9,271.26V238.18h5v28.57h15.94v4.51Z"/>
      <path class="cls-2" d="M630.13,120.44a61.36,61.36,0,0,1-12.71,18.24,73.5,73.5,0,0,1-18,13,89.76,89.76,0,0,1-22,7.81,114.3,114.3,0,0,1-24.59,2.6,100.33,100.33,0,0,1-36-6.15,82.59,82.59,0,0,1-27.72-17.08,75.63,75.63,0,0,1-17.81-25.74,81.51,81.51,0,0,1-6.25-32.09q0-19,7.08-34.07a75.76,75.76,0,0,1,19.18-25.53,85,85,0,0,1,28-15.94A101.52,101.52,0,0,1,552.82,0q26.67,0,46.68,12.09A84.9,84.9,0,0,1,630.76,45l-25,11.25a84.56,84.56,0,0,0-9.59-12.09,52.72,52.72,0,0,0-25.73-14.89,71.84,71.84,0,0,0-17.61-2A70.5,70.5,0,0,0,530,30.94a55.35,55.35,0,0,0-18.75,10.63,50.84,50.84,0,0,0-12.72,17,53,53,0,0,0-4.69,22.72,50.48,50.48,0,0,0,17.41,39.07A58.07,58.07,0,0,0,530,131.18,67,67,0,0,0,552.82,135a86.52,86.52,0,0,0,16.56-1.56,63.63,63.63,0,0,0,14.91-4.79,48.56,48.56,0,0,0,12.4-8.34A45.49,45.49,0,0,0,606,108.15Z"/>
      <path class="cls-2" d="M776.28,29H666.67l9.72,11V65.64h86.28V92.31H676.39v39.6H781v26.88H648.47V2.08H776.28Z"/>
      <path class="cls-2" d="M271.54,147.23a302.68,302.68,0,0,1-71.25,76.57c-43.82,32-88.29,55.49-133.83,45.35C52.53,266,30.11,251.22,32.69,216.86a149.6,149.6,0,0,1,26-69.69h0s-29.9,44.45-10,71.45c20.86,28.23,79.63-2.4,89.47-9.12,0,0,40.81-26.42,62.64-62.27Z" style="fill: rgb(255, 255, 255);"/>
      <path class="cls-2" d="M0,124.55A304.72,304.72,0,0,1,71.3,47.71c43.77-32,88.24-55.49,133.78-45.3C219,5.5,241.43,20.28,238.85,54.65a149.25,149.25,0,0,1-26,69.95h0s29.9-44.39,10-71.45c-20.8-28.22-79.63,2.46-89.47,9.13,0,0-40.76,26.41-62.64,62.27Z" style="fill: rgb(255, 255, 255);"/>
    </g>
  </g>
</svg>